HIERARCHY
ROOT Hips
{
	OFFSET 0.00 0.00 0.00
	CHANNELS 6 Xposition Yposition Zposition Xrotation Yrotation Zrotation
	JOINT Spine
	{
		OFFSET 0.00000 1.72418 2.58627
		CHANNELS 3 Xrotation Yrotation Zrotation
		JOINT Spine1
		{
			OFFSET 0.00000 0.59880 3.39597
			CHANNELS 3 Xrotation Yrotation Zrotation
			JOINT Spine2
			{
				OFFSET 0.00000 0.30055 3.43524
				CHANNELS 3 Xrotation Yrotation Zrotation
				JOINT Spine3
				{
					OFFSET 0.00000 0.00000 3.44836
					CHANNELS 3 Xrotation Yrotation Zrotation
					JOINT Neck
					{
						OFFSET 0.00000 -1.29313 9.05195
						CHANNELS 3 Xrotation Yrotation Zrotation
						JOINT Head
						{
							OFFSET 0.00000 -0.82335 4.66946
							CHANNELS 3 Xrotation Yrotation Zrotation
							End Site
							{
								OFFSET 0.00000 0.00001 5.58203
							}
						}
					}
					JOINT RightShoulder
					{
						OFFSET -1.18828 -1.98046 6.41673
						CHANNELS 3 Xrotation Yrotation Zrotation
						JOINT RightArm
						{
							OFFSET -5.90180 0.00000 0.00000
							CHANNELS 3 Xrotation Yrotation Zrotation
							JOINT RightForeArm
							{
								OFFSET -11.45951 0.00000 0.00000
								CHANNELS 3 Xrotation Yrotation Zrotation
								JOINT RightHand
								{
									OFFSET -10.63451 0.00000 0.00000
									CHANNELS 3 Xrotation Yrotation Zrotation
									JOINT RightHandEnd
									{
										OFFSET -2.86944 0.00000 0.00000
										CHANNELS 3 Xrotation Yrotation Zrotation
										End Site
										{
											OFFSET -2.86944 0.00000 0.00000
										}
									}
									JOINT RightHandThumb1
									{
										OFFSET -1.14778 -1.91296 -0.76518
										CHANNELS 3 Yrotation Xrotation Zrotation
										End Site
										{
											OFFSET -2.77167 -0.74267 0.00000
										}
									}
								}
							}
						}
					}
					JOINT LeftShoulder
					{
						OFFSET 1.18828 -1.98046 6.41673
						CHANNELS 3 Xrotation Yrotation Zrotation
						JOINT LeftArm
						{
							OFFSET 5.90180 0.00000 0.00000
							CHANNELS 3 Xrotation Yrotation Zrotation
							JOINT LeftForeArm
							{
								OFFSET 11.45951 0.00000 0.00000
								CHANNELS 3 Xrotation Yrotation Zrotation
								JOINT LeftHand
								{
									OFFSET 10.63451 0.00000 0.00000
									CHANNELS 3 Xrotation Yrotation Zrotation
									JOINT LeftHandEnd
									{
										OFFSET 2.86944 0.00000 0.00000
										CHANNELS 3 Xrotation Yrotation Zrotation
										End Site
										{
											OFFSET 2.86944 0.00000 0.00000
										}
									}
									JOINT LeftHandThumb1
									{
										OFFSET 1.14778 -1.91296 -0.76518
										CHANNELS 3 Yrotation Xrotation Zrotation
										End Site
										{
											OFFSET 2.77167 -0.74267 0.00000
										}
									}
								}
							}
						}
					}
				}
			}
		}
	}
	JOINT RightUpLeg
	{
		OFFSET -3.52524 0.00000 -1.02984
		CHANNELS 3 Xrotation Yrotation Zrotation
		JOINT RightLeg
		{
			OFFSET 0.00001 0.00000 -17.80965
			CHANNELS 3 Xrotation Yrotation Zrotation
			JOINT RightFoot
			{
				OFFSET 0.00001 0.00000 -17.00908
				CHANNELS 3 Xrotation Yrotation Zrotation
				JOINT RightToeBase
				{
					OFFSET 0.00000 -5.55853 -2.02314
					CHANNELS 3 Xrotation Yrotation Zrotation
					End Site
					{
						OFFSET 0.00000 -2.85188 -0.00000
					}
				}
			}
		}
	}
	JOINT LeftUpLeg
	{
		OFFSET 3.52524 0.00000 -1.02984
		CHANNELS 3 Xrotation Yrotation Zrotation
		JOINT LeftLeg
		{
			OFFSET 0.00001 0.00000 -17.80965
			CHANNELS 3 Xrotation Yrotation Zrotation
			JOINT LeftFoot
			{
				OFFSET 0.00001 0.00000 -17.00908
				CHANNELS 3 Xrotation Yrotation Zrotation
				JOINT LeftToeBase
				{
					OFFSET 0.00000 -5.55853 -2.02314
					CHANNELS 3 Xrotation Yrotation Zrotation
					End Site
					{
						OFFSET 0.00000 -2.85188 -0.00000
					}
				}
			}
		}
	}
}
MOTION
Frames: 7
Frame Time: 0.016683
 -2.0903 -104.9608 36.5335 -2.0875 1.0800 -178.4402 -1.3993 0.4449 -0.4292 -0.8862 0.3602 0.0157 5.9743 -1.1600 -0.5673 1.6985 -0.2213 0.3128 1.5367 0.3501 -0.6769 -0.3616 1.2907 -0.1670 17.3186 -16.6381 3.1058 36.4906 -23.6704 33.0170 -0.0000 0.0000 40.2991 -0.9604 11.3898 3.7313 0.0000 0.0000 0.0000 0.0000 0.0000 0.0000 21.4573 12.7419 -5.3736 30.3202 31.4814 -26.7300 -0.0000 -0.0000 -56.6017 9.9766 -5.1732 -5.8809 0.0000 -0.0000 -0.0000 -0.0000 0.0000 -0.0000 -5.8062 6.9162 -29.5293 15.9961 0.0000 0.0000 -11.6930 -2.7923 2.2852 -0.8895 0.0000 -0.0000 -2.5104 -2.9331 14.9968 11.3468 0.0000 0.0000 -10.1804 4.3535 4.5150 0.3422 0.0000 0.0000
 -2.0867 -104.9694 36.5295 -2.0940 1.0996 -178.4768 -1.3945 0.4589 -0.4316 -0.8883 0.3730 0.0150 5.9643 -1.2244 -0.5899 1.6938 -0.2357 0.3233 1.5905 0.3254 -0.6826 -0.3440 1.3031 -0.1717 17.2208 -16.9037 2.9860 36.0346 -24.0766 32.8763 -0.0000 0.0000 40.0019 -1.2100 12.0770 3.6270 0.0000 0.0000 -0.0000 -0.0000 0.0000 0.0000 21.3150 12.8940 -5.3464 29.8805 31.8344 -26.6738 -0.0000 -0.0000 -56.0884 10.2995 -5.8103 -5.4634 0.0000 -0.0000 -0.0000 0.0000 -0.0000 0.0000 -5.8724 6.9387 -29.4106 16.0780 0.0000 0.0000 -11.7520 -2.7744 2.2245 -0.8737 0.0000 -0.0000 -2.5042 -2.9226 15.0270 11.3145 0.0000 0.0000 -10.1906 4.3596 4.4745 0.3602 0.0000 0.0000
 -2.0834 -104.9794 36.5249 -2.1217 1.1297 -178.4985 -1.4064 0.4857 -0.4324 -0.8894 0.3746 0.0112 5.9532 -1.2795 -0.6178 1.6880 -0.2489 0.3270 1.6199 0.3066 -0.6848 -0.3227 1.3124 -0.1686 17.1349 -17.1094 2.9002 35.6451 -24.4256 32.7678 -0.0000 0.0000 39.6227 -1.4756 12.8664 3.5106 -0.0000 0.0000 -0.0000 0.0000 -0.0000 -0.0000 21.1647 13.0188 -5.3224 29.4173 32.1815 -26.6437 -0.0000 -0.0000 -55.4578 10.6661 -6.4103 -5.1099 0.0000 0.0000 0.0000 0.0000 -0.0000 0.0000 -5.9702 6.9771 -29.2776 16.1827 0.0000 0.0000 -11.8272 -2.7516 2.1403 -0.8545 0.0000 -0.0000 -2.5242 -2.8997 15.0431 11.2842 0.0000 0.0000 -10.1978 4.3556 4.4335 0.3739 0.0000 0.0000
 -2.0801 -104.9893 36.5202 -2.1457 1.1704 -178.5069 -1.4085 0.5175 -0.4337 -0.8900 0.3808 0.0073 5.9340 -1.3340 -0.6565 1.6822 -0.2609 0.3277 1.6335 0.2940 -0.6817 -0.2908 1.3164 -0.1514 17.0499 -17.2371 2.8390 35.3554 -24.7236 32.7203 -0.0000 0.0000 39.1792 -1.7961 13.6835 3.3609 -0.0000 -0.0000 0.0000 -0.0000 -0.0000 -0.0000 21.0142 13.0986 -5.3111 28.9414 32.5492 -26.6381 -0.0000 -0.0000 -54.7391 10.9611 -6.9312 -4.8024 -0.0000 -0.0000 0.0000 -0.0000 0.0000 0.0000 -6.0723 7.0299 -29.1306 16.3107 0.0000 0.0000 -11.9161 -2.7229 2.0319 -0.8364 0.0000 -0.0000 -2.5412 -2.8646 15.0506 11.2524 0.0000 0.0000 -10.2014 4.3430 4.3911 0.3838 0.0000 0.0000
 -2.0770 -104.9997 36.5152 -2.1769 1.2254 -178.5069 -1.4128 0.5586 -0.4348 -0.8902 0.3862 0.0033 5.9078 -1.3801 -0.7019 1.6764 -0.2712 0.3239 1.6377 0.2837 -0.6714 -0.2506 1.3164 -0.1190 16.9633 -17.2959 2.8055 35.1610 -24.9737 32.7199 -0.0000 0.0000 38.7056 -2.1416 14.4278 3.1714 0.0000 -0.0000 0.0000 0.0000 0.0000 -0.0000 20.8750 13.1353 -5.3220 28.4574 32.9287 -26.6440 -0.0000 -0.0000 -53.9644 11.1028 -7.3492 -4.5138 -0.0000 -0.0000 0.0000 -0.0000 0.0000 0.0000 -6.2009 7.1018 -28.9484 16.4784 0.0000 0.0000 -12.0212 -2.6842 1.8827 -0.8233 0.0000 -0.0000 -2.5693 -2.8137 15.0504 11.2235 0.0000 0.0000 -10.2019 4.3287 4.3535 0.3921 0.0000 0.0000
 -2.0735 -105.0102 36.5098 -2.2058 1.2934 -178.5020 -1.4108 0.6051 -0.4370 -0.8878 0.3916 0.0019 5.8748 -1.4146 -0.7527 1.6702 -0.2815 0.3191 1.6369 0.2754 -0.6546 -0.2096 1.3134 -0.0771 16.8849 -17.3008 2.7908 35.0391 -25.1692 32.7554 -0.0000 0.0000 38.2307 -2.4469 15.0099 2.9540 0.0000 -0.0000 -0.0000 0.0000 -0.0000 -0.0000 20.7507 13.1415 -5.3653 27.9783 33.2951 -26.6461 -0.0000 -0.0000 -53.1669 11.0658 -7.6582 -4.2171 0.0000 -0.0000 0.0000 0.0000 -0.0000 0.0000 -6.3493 7.1897 -28.7175 16.6902 0.0000 0.0000 -12.1421 -2.6347 1.6817 -0.8176 0.0000 -0.0000 -2.5981 -2.7496 15.0472 11.1979 0.0000 0.0000 -10.2001 4.3236 4.3202 0.4000 0.0000 0.0000
 -2.0693 -105.0215 36.5037 -2.2374 1.3784 -178.4976 -1.4073 0.6619 -0.4378 -0.8855 0.3950 -0.0000 5.8420 -1.4368 -0.7987 1.6644 -0.2889 0.3118 1.6269 0.2650 -0.6344 -0.1770 1.3107 -0.0299 16.8232 -17.2730 2.7927 34.9558 -25.3086 32.8029 0.0000 0.0000 37.7775 -2.6567 15.3743 2.7353 0.0000 0.0000 0.0000 0.0000 -0.0000 -0.0000 20.6384 13.1255 -5.4387 27.5273 33.6205 -26.6512 -0.0000 -0.0000 -52.3650 10.8762 -7.8762 -3.9103 0.0000 -0.0000 0.0000 -0.0000 0.0000 -0.0000 -6.5308 7.2975 -28.4221 16.9563 0.0000 0.0000 -12.2837 -2.5745 1.4197 -0.8184 0.0000 -0.0000 -2.6345 -2.6693 15.0430 11.1788 0.0000 0.0000 -10.1958 4.3349 4.2940 0.4079 0.0000 0.0000
